<svg id="Component_2_1" data-name="Component 2 – 1" xmlns="http://www.w3.org/2000/svg" width="132.237" height="75.998" viewBox="0 0 132.237 75.998">
  <path id="Subtraction_1" data-name="Subtraction 1" d="M31,44H21V31H7V21H21V7H31V21H44V31H31V44Z" transform="translate(42.668 -7)" fill="#029fc7"/>
  <path id="Path_7" data-name="Path 7" d="M-300.483-7.978c-1.441,4.7-6.2,9.369-6.833,8.889s-7.327-7.246-10.967-8.424-3.591-1.746-6.794-2.27-3.4-.262-6.211-1-8.1-4.147-9.754-5.587-10.967-9.341-12.762-11.3a81.723,81.723,0,0,0-7.764-7.071c-1.262-.873-2.135-2.008-3.64-2.706s-5.823-2.75-6.405-3.23a2.363,2.363,0,0,1,0-2.968c.808-.787,3.009-.611,3.445-.48a6.162,6.162,0,0,1,2.288.837c1.478.809,2.565,1.826,3.73,2.306s1.893.7,1.99.306-1.5-2.378-1.99-3.448-.194-1.921,1.068-1.921a6.545,6.545,0,0,1,3.4.96c.527.454,3.106,3.623,4.756,4.409s4.8,4.234,7.861,6.678,5.916,4.809,7.036,5.631a6.279,6.279,0,0,0,3.154,1.615c1.8.413,2.281.524,2.669.175s.4-.4.437-.567-.1-.349-1.844-.829a26.943,26.943,0,0,1-5.775-2.924,6.438,6.438,0,0,1-1.31-2.27c-.137-.4-.727-2.734,0-3.186s1.116-.262,1.8-.262a9.047,9.047,0,0,1,2.426.655c.922.306,3.494,1.484,6.066,2.532s1.7,1.091,5.338,1.877a51.943,51.943,0,0,1,8.249,2.182c4.125,1.4,5.872,1.877,9.026,4.365s4.416,2.75,4.9,3.972a17.769,17.769,0,0,1,.922,3.317c.194,1,1.6,2.532,1.8,3.666A48.59,48.59,0,0,1-300.483-7.978Z" transform="translate(372.138 75.053)" fill="#63b322"/>
  <path id="Path_5" data-name="Path 5" d="M-371.782-1.134c1.486,5.545,6.4,11.054,7.046,10.487s7.555-8.548,11.308-9.938,3.7-2.06,7-2.678,3.5-.309,6.4-1.184,8.356-4.892,10.057-6.591,11.308-11.02,13.159-13.337a89.594,89.594,0,0,1,8.005-8.342c1.3-1.03,2.2-2.369,3.753-3.193s6-3.244,6.6-3.811a3.107,3.107,0,0,0,0-3.5c-.833-.928-3.1-.721-3.552-.566a5.832,5.832,0,0,0-2.359.987c-1.523.955-2.645,2.154-3.845,2.721s-1.951.824-2.051.36,1.545-2.806,2.051-4.068.2-2.266-1.1-2.266a6.145,6.145,0,0,0-3.5,1.133c-.544.536-3.2,4.274-4.9,5.2s-4.953,4.995-8.105,7.879-6.1,5.673-7.255,6.643a6.248,6.248,0,0,1-3.252,1.905c-1.859.487-2.352.618-2.752.206s-.417-.47-.45-.669.1-.412,1.9-.978a26.673,26.673,0,0,0,5.954-3.45,7.934,7.934,0,0,0,1.351-2.678c.141-.478.749-3.225,0-3.759s-1.151-.309-1.851-.309a8.413,8.413,0,0,0-2.5.772c-.951.36-3.6,1.751-6.254,2.987s-1.751,1.287-5.5,2.214a48.239,48.239,0,0,0-8.506,2.575c-4.253,1.648-6.054,2.214-9.306,5.149s-4.553,3.244-5.053,4.686a23.374,23.374,0,0,0-.951,3.914c-.2,1.184-1.651,2.987-1.851,4.326A65.51,65.51,0,0,0-371.782-1.134Z" transform="translate(430.138 66.604)" fill="#029fc7"/>
</svg>
